<?xml version="1.0" encoding="UTF-8" standalone="no"?>
<!-- Created with Inkscape (http://www.inkscape.org/) -->

<svg
   xmlns:dc="http://purl.org/dc/elements/1.1/"
   xmlns:cc="http://creativecommons.org/ns#"
   xmlns:rdf="http://www.w3.org/1999/02/22-rdf-syntax-ns#"
   xmlns:svg="http://www.w3.org/2000/svg"
   xmlns="http://www.w3.org/2000/svg"
   xmlns:xlink="http://www.w3.org/1999/xlink"
   xmlns:sodipodi="http://sodipodi.sourceforge.net/DTD/sodipodi-0.dtd"
   xmlns:inkscape="http://www.inkscape.org/namespaces/inkscape"
   width="139.1637mm"
   height="139.07468mm"
   viewBox="0 0 139.1637 139.07468"
   version="1.1"
   id="svg8"
   inkscape:version="0.92.5 (2060ec1f9f, 2020-04-08)"
   sodipodi:docname="ashul-ez.svg">
  <defs
     id="defs2" />
  <sodipodi:namedview
     id="base"
     pagecolor="#000000"
     bordercolor="#666666"
     borderopacity="1.0"
     inkscape:pageopacity="0"
     inkscape:pageshadow="2"
     inkscape:zoom="0.98994949"
     inkscape:cx="206.7742"
     inkscape:cy="361.89647"
     inkscape:document-units="mm"
     inkscape:current-layer="layer1"
     showgrid="false"
     showguides="true"
     inkscape:guide-bbox="true"
     inkscape:window-width="1341"
     inkscape:window-height="1016"
     inkscape:window-x="579"
     inkscape:window-y="27"
     inkscape:window-maximized="0"
     inkscape:pagecheckerboard="true"
     fit-margin-top="0"
     fit-margin-left="0"
     fit-margin-right="0"
     fit-margin-bottom="0" />
  <metadata
     id="metadata5">
    <rdf:RDF>
      <cc:Work
         rdf:about="">
        <dc:format>image/svg+xml</dc:format>
        <dc:type
           rdf:resource="http://purl.org/dc/dcmitype/StillImage" />
        <dc:title></dc:title>
      </cc:Work>
    </rdf:RDF>
  </metadata>
  <g
     inkscape:label="Layer 1"
     inkscape:groupmode="layer"
     id="layer1"
     transform="translate(-31.792295,-72.612633)">
    <circle
       style="fill:none;fill-opacity:1;stroke:none;stroke-width:1;stroke-miterlimit:4;stroke-dasharray:none;stroke-opacity:1"
       id="path819"
       cx="173.87086"
       cy="-14.233165"
       r="57.727749"
       transform="rotate(59.182835)" />
    <g
       id="g930"
       transform="rotate(-120,101.29762,142.02977)">
      <path
         inkscape:connector-curvature="0"
         transform="scale(0.26458333)"
         id="path827"
         d="m 382.85742,320.23438 c 0,-10e-6 -2.7e-4,216.57143 -167.85742,358 h 167.85742 167.85742 c -167.85712,-141.42857 -167.85742,-358.00001 -167.85742,-358 z m 0.71485,201.14257 a 77.570685,77.570685 0 0 1 7.74414,0.38867 77.570685,77.570685 0 0 1 7.66601,1.15821 77.570685,77.570685 0 0 1 7.51172,1.91797 77.570685,77.570685 0 0 1 7.28516,2.66015 77.570685,77.570685 0 0 1 6.98242,3.3711 77.570685,77.570685 0 0 1 6.60937,4.05273 77.570685,77.570685 0 0 1 6.17188,4.69336 77.570685,77.570685 0 0 1 5.67383,5.28516 77.570685,77.570685 0 0 1 5.11718,5.82617 77.570685,77.570685 0 0 1 4.51172,6.30664 77.570685,77.570685 0 0 1 3.85742,6.72461 77.570685,77.570685 0 0 1 3.16797,7.07812 77.570685,77.570685 0 0 1 2.44336,7.35938 77.570685,77.570685 0 0 1 1.69922,7.56445 77.570685,77.570685 0 0 1 0.9336,7.69727 77.570685,77.570685 0 0 1 0.19531,5.48828 77.570685,77.570685 0 0 1 -0.38867,7.74414 77.570685,77.570685 0 0 1 -1.15821,7.66602 77.570685,77.570685 0 0 1 -1.91797,7.51171 77.570685,77.570685 0 0 1 -2.6582,7.28516 77.570685,77.570685 0 0 1 -3.37305,6.98047 77.570685,77.570685 0 0 1 -4.05273,6.61133 77.570685,77.570685 0 0 1 -4.69336,6.17187 77.570685,77.570685 0 0 1 -5.28516,5.67383 77.570685,77.570685 0 0 1 -5.82421,5.11719 77.570685,77.570685 0 0 1 -6.3086,4.51172 77.570685,77.570685 0 0 1 -6.72461,3.85742 77.570685,77.570685 0 0 1 -7.07812,3.16797 77.570685,77.570685 0 0 1 -7.35742,2.44336 77.570685,77.570685 0 0 1 -7.56641,1.69921 77.570685,77.570685 0 0 1 -7.69727,0.9336 77.570685,77.570685 0 0 1 -5.48632,0.19531 77.570685,77.570685 0 0 1 -7.74415,-0.38867 77.570685,77.570685 0 0 1 -7.66796,-1.1582 77.570685,77.570685 0 0 1 -7.51172,-1.91797 77.570685,77.570685 0 0 1 -7.28516,-2.65821 77.570685,77.570685 0 0 1 -6.98047,-3.37304 77.570685,77.570685 0 0 1 -6.61133,-4.05274 77.570685,77.570685 0 0 1 -6.17187,-4.69336 77.570685,77.570685 0 0 1 -5.67383,-5.28515 77.570685,77.570685 0 0 1 -5.11719,-5.82422 77.570685,77.570685 0 0 1 -4.50976,-6.30859 77.570685,77.570685 0 0 1 -3.85938,-6.72461 77.570685,77.570685 0 0 1 -3.16601,-7.07813 77.570685,77.570685 0 0 1 -2.44532,-7.35742 77.570685,77.570685 0 0 1 -1.69921,-7.56641 77.570685,77.570685 0 0 1 -0.9336,-7.69726 77.570685,77.570685 0 0 1 -0.19531,-5.48633 77.570685,77.570685 0 0 1 0.38867,-7.74414 77.570685,77.570685 0 0 1 1.15821,-7.66797 77.570685,77.570685 0 0 1 1.91796,-7.51172 77.570685,77.570685 0 0 1 2.66016,-7.28516 77.570685,77.570685 0 0 1 3.37109,-6.98046 77.570685,77.570685 0 0 1 4.05274,-6.61133 77.570685,77.570685 0 0 1 4.69336,-6.17188 77.570685,77.570685 0 0 1 5.28515,-5.67383 77.570685,77.570685 0 0 1 5.82618,-5.11718 77.570685,77.570685 0 0 1 6.30664,-4.50977 77.570685,77.570685 0 0 1 6.72461,-3.85937 77.570685,77.570685 0 0 1 7.07812,-3.16797 77.570685,77.570685 0 0 1 7.35938,-2.44336 77.570685,77.570685 0 0 1 7.56445,-1.69922 77.570685,77.570685 0 0 1 7.69726,-0.93359 77.570685,77.570685 0 0 1 5.48829,-0.19532 z"
         style="fill:#e0e0e0;fill-opacity:1;stroke:#e0e0e0;stroke-width:3.77952766;stroke-linecap:butt;stroke-linejoin:bevel;stroke-miterlimit:4;stroke-dasharray:none;stroke-opacity:1" />
      <path
         inkscape:connector-curvature="0"
         id="path852"
         d="m 83.320889,149.03778 17.976731,12.64674"
         style="fill:none;stroke:#e0e0e0;stroke-width:1;stroke-linecap:butt;stroke-linejoin:miter;stroke-miterlimit:4;stroke-dasharray:none;stroke-opacity:1" />
      <path
         inkscape:connector-curvature="0"
         id="path854"
         d="M 101.29762,179.22946 V 161.68452"
         style="fill:none;stroke:#e0e0e0;stroke-width:0.97411197;stroke-linecap:butt;stroke-linejoin:miter;stroke-miterlimit:4;stroke-dasharray:none;stroke-opacity:1" />
      <path
         inkscape:connector-curvature="0"
         id="path856"
         d="m 119.27435,149.03778 -17.97673,12.64674"
         style="fill:none;stroke:#e0e0e0;stroke-width:1;stroke-linecap:butt;stroke-linejoin:miter;stroke-miterlimit:4;stroke-dasharray:none;stroke-opacity:1" />
    </g>
    <text
       xml:space="preserve"
       style="font-style:normal;font-variant:normal;font-weight:normal;font-stretch:normal;font-size:10.58333302px;line-height:1.25;font-family:Old_Runic;-inkscape-font-specification:Old_Runic;letter-spacing:0px;word-spacing:0px;fill:#000000;fill-opacity:1;stroke:none;stroke-width:0.26458332"
       id="text902"><textPath
         xlink:href="#path819"
         id="textPath904"
         style="font-size:14.53444481px"><tspan
           id="tspan866"
           style="font-size:14.53444481px;fill:#e0e0e0;fill-opacity:1;stroke:none;stroke-width:0.26458332;stroke-opacity:1"
           y="45.932598"
           x="17.372583">aʃuluz∙ez∙zuʃul∙kapest•aʃuluz∙ez∙zuʃul∙ʒitest•</tspan></textPath></text>
  </g>
</svg>
