<?xml version="1.0" encoding="UTF-8" standalone="no"?>
<svg
   xmlns:dc="http://purl.org/dc/elements/1.1/"
   xmlns:cc="http://creativecommons.org/ns#"
   xmlns:rdf="http://www.w3.org/1999/02/22-rdf-syntax-ns#"
   xmlns:svg="http://www.w3.org/2000/svg"
   xmlns="http://www.w3.org/2000/svg"
   xmlns:sodipodi="http://sodipodi.sourceforge.net/DTD/sodipodi-0.dtd"
   xmlns:inkscape="http://www.inkscape.org/namespaces/inkscape"
   width="171.96277mm"
   height="167.93317mm"
   viewBox="0 0 171.96277 167.93317"
   version="1.1"
   id="svg8"
   inkscape:version="1.0.2 (394de47547, 2021-03-26)"
   sodipodi:docname="gildir.svg">
  <defs
     id="defs2" />
  <sodipodi:namedview
     id="base"
     pagecolor="#262626"
     bordercolor="#666666"
     borderopacity="1.0"
     inkscape:pageopacity="0"
     inkscape:pageshadow="2"
     inkscape:zoom="0.98994949"
     inkscape:cx="204.95601"
     inkscape:cy="336.18344"
     inkscape:document-units="mm"
     inkscape:current-layer="layer1"
     inkscape:document-rotation="0"
     showgrid="false"
     showguides="true"
     inkscape:guide-bbox="true"
     fit-margin-top="0"
     fit-margin-left="0"
     fit-margin-right="0"
     fit-margin-bottom="0"
     inkscape:window-width="1920"
     inkscape:window-height="1043"
     inkscape:window-x="1680"
     inkscape:window-y="0"
     inkscape:window-maximized="1" />
  <metadata
     id="metadata5">
    <rdf:RDF>
      <cc:Work
         rdf:about="">
        <dc:format>image/svg+xml</dc:format>
        <dc:type
           rdf:resource="http://purl.org/dc/dcmitype/StillImage" />
        <dc:title></dc:title>
      </cc:Work>
    </rdf:RDF>
  </metadata>
  <g
     inkscape:label="Layer 1"
     inkscape:groupmode="layer"
     id="layer1"
     transform="translate(-22.907122,-51.988945)">
    <circle
       style="fill:#262626;fill-opacity:1;stroke:#e0e0e0;stroke-width:1;stroke-miterlimit:4;stroke-dasharray:none;stroke-opacity:1"
       id="path1089"
       cx="108.77869"
       cy="140.04924"
       r="61.497223" />
    <g
       id="g1236">
      <path
         id="path1091-7"
         style="fill:#e0e0e0;fill-opacity:1;stroke:#262626;stroke-width:0.264583px;stroke-linecap:butt;stroke-linejoin:miter;stroke-opacity:1"
         d="m 108.7732,52.051087 c 0,0 0.84181,4.56102 0.84181,8.45013 0,6.547199 -6.84557,8.418028 -6.84557,14.490586 0,7.009 9.71465,12.468812 9.71465,18.457272 0,3.79239 -3.71089,10.774535 -3.71089,10.774535 0,0 5.28754,-8.286382 5.28754,-12.948563 0,-5.36543 -4.51187,-9.869678 -4.51187,-15.367537 0,-4.110529 3.35262,-7.791775 3.23288,-11.900564 -0.13636,-4.67864 -4.00855,-11.955859 -4.00855,-11.955859 z m 68.35914,32.624363 c 0,0 -3.01444,3.524234 -6.03684,5.97173 -5.08813,4.120285 -10.85033,-0.02233 -15.5696,3.79925 -5.447,4.410906 -3.57659,15.39658 -8.2305,19.16524 -2.94724,2.38663 -10.70839,3.89692 -10.70839,3.89692 0,0 9.7672,-1.10555 13.3904,-4.03955 4.16972,-3.37658 4.83068,-9.71757 9.10332,-13.17749 3.19448,-2.586834 8.16525,-2.298155 11.28303,-4.976956 3.55018,-3.050328 6.76858,-10.639144 6.76858,-10.639144 z M 39.459606,85.868144 c 0,0 4.112162,2.144882 7.176823,4.539258 5.159261,4.030855 2.418961,10.576768 7.204212,14.315398 5.523159,4.31519 15.80691,0.0214 20.525878,3.70831 2.988439,2.33483 6.205823,9.55755 6.205823,9.55755 0,0 -3.274563,-9.26795 -6.948414,-12.13828 -4.22802,-3.30328 -10.555091,-2.52127 -14.887463,-5.906093 -3.239141,-2.530695 -4.076171,-7.439065 -7.387662,-9.874332 -3.77077,-2.773014 -11.889197,-4.201811 -11.889197,-4.201811 z M 108.7732,137.32805 c -0.19074,1.3e-4 -0.38092,0.0204 -0.5674,0.0605 -0.76844,0.15023 -1.43425,0.6257 -1.82573,1.3038 -0.17851,0.30933 -0.29407,0.65092 -0.34003,1.0051 -0.0436,0.32339 -0.0283,0.652 0.045,0.96997 0.0416,0.17979 0.10155,0.35485 0.1788,0.52245 0.25978,0.62294 0.7428,1.12642 1.35443,1.4118 1.35538,0.63204 2.9665,0.0458 3.59875,-1.30948 0.0741,-0.15881 0.13258,-0.32443 0.17467,-0.49454 0.31147,-1.06457 -0.0577,-2.21145 -0.93173,-2.8944 -0.44311,-0.34606 -0.98294,-0.54564 -1.5446,-0.57103 -0.0473,-0.003 -0.0947,-0.004 -0.14212,-0.004 z m -46.852948,8.34213 c -0.688049,0.0105 -1.329206,0.0741 -1.897042,0.20515 -5.22791,1.20696 -8.60189,6.616 -13.958839,7.85275 -4.00517,0.92467 -8.346221,-1.51378 -12.322763,-0.47284 -4.528058,1.18532 -10.747663,6.59547 -10.747663,6.59547 0,0 4.254524,-1.84642 8.043952,-2.72128 6.37939,-1.47281 9.742075,4.77667 15.658994,3.41064 6.829359,-1.57668 9.964066,-12.27065 15.799036,-13.61777 3.695189,-0.8531 11.333157,1.19217 11.333157,1.19217 0,0 -7.092506,-2.51754 -11.908832,-2.44429 z m 62.541918,26.65005 c 0,0 -1.1198,9.76591 0.92397,13.95625 2.35205,4.82242 8.382,6.89298 10.79211,11.83442 1.80193,3.69452 0.40217,8.47249 2.31097,12.11296 2.17353,4.14536 8.8439,8.9886 8.8439,8.9886 0,0 -2.75583,-3.73041 -4.46071,-7.22592 -2.87011,-5.88459 2.46256,-10.56688 -0.19947,-16.02486 -3.07255,-6.29965 -14.19757,-6.94812 -16.82274,-12.33051 -1.66247,-3.40858 -1.38803,-11.31094 -1.38803,-11.31094 z m -30.83481,0.28422 c 0,0 -8.294172,5.27534 -10.26449,9.50071 -2.267532,4.86273 -0.08204,10.85194 -2.405538,15.83469 -1.73718,3.72541 -6.331276,5.64464 -7.959204,9.41907 -1.853711,4.29792 -1.419553,12.52998 -1.419553,12.52998 0,0 1.164489,-4.48925 2.808097,-8.01398 2.76697,-5.93378 9.761561,-4.73659 12.327929,-10.2402 2.96214,-6.35231 -3.534902,-15.40597 -1.004072,-20.83336 1.60274,-3.43706 7.916831,-8.19691 7.916831,-8.19691 z"
         sodipodi:nodetypes="cssscsssccssscsssccscscsssccccccccscccccccsscssscccssscsssccssscsssc" />
      <path
         id="path1091-7-0"
         style="fill:#e0e0e0;fill-opacity:1;stroke:#262626;stroke-width:0.264583px;stroke-linecap:butt;stroke-linejoin:miter;stroke-opacity:1"
         d="m 106.12208,139.47396 a 2.7081414,2.7081414 0 0 1 3.21227,-2.08608 2.7081414,2.7081414 0 0 1 2.08558,3.21217 2.7081414,2.7081414 0 0 1 -3.21167,2.08568 2.7081414,2.7081414 0 0 1 -2.08618,-3.21177 z m 37.67888,8.00889 c 0,0 6.05802,5.08147 9.76754,5.86995 5.8576,1.24507 13.21789,-7.12213 20.07373,-5.66488 5.93985,1.26256 6.34654,8.3475 12.75067,9.70874 3.80411,0.80859 8.44049,0.93347 8.44049,0.93347 0,0 -7.92327,2.27455 -12.52802,1.43518 -4.04389,-0.73714 -6.94765,-4.78186 -10.96837,-5.63649 -5.37772,-1.14307 -10.7216,2.33372 -15.96978,1.21818 -4.5603,-0.96932 -11.56626,-7.86415 -11.56626,-7.86415 z" />
    </g>
    <ellipse
       style="fill:#262626;fill-opacity:1;stroke:#e0e0e0;stroke-width:2.60166;stroke-miterlimit:4;stroke-dasharray:none;stroke-opacity:1"
       id="path1087"
       cx="108.77869"
       cy="140.04924"
       ry="40.467426"
       rx="40.479885" />
    <path
       id="path983"
       style="fill:#e0e0e0;fill-opacity:1;stroke:#262626;stroke-width:1;stroke-linecap:butt;stroke-linejoin:miter;stroke-miterlimit:4;stroke-dasharray:none;stroke-opacity:1"
       d="m 83.687398,114.95732 19.942452,25.09201 -19.942968,25.09149 25.092008,-19.94245 25.09149,19.94297 -19.94245,-25.09201 19.94297,-25.09149 -25.09201,19.94245 z" />
    <path
       id="path851"
       style="fill:#e0e0e0;fill-opacity:1;stroke:#262626;stroke-width:1.5;stroke-linecap:round;stroke-linejoin:miter;stroke-miterlimit:4;stroke-dasharray:none;stroke-opacity:1;paint-order:stroke fill markers"
       d="m 108.77889,104.23705 -3.70158,28.88402 -35.028873,6.92826 35.028873,6.92826 3.70158,28.88403 3.70158,-28.88403 35.02887,-6.92826 -35.02887,-6.92826 z" />
  </g>
</svg>
