<?xml version="1.0" encoding="UTF-8"?>
<svg width="171.96mm" height="167.93mm" version="1.1" viewBox="0 0 171.96 167.93" xmlns="http://www.w3.org/2000/svg" xmlns:cc="http://creativecommons.org/ns#" xmlns:dc="http://purl.org/dc/elements/1.1/" xmlns:rdf="http://www.w3.org/1999/02/22-rdf-syntax-ns#">
 <metadata>
  <rdf:RDF>
   <cc:Work rdf:about="">
    <dc:format>image/svg+xml</dc:format>
    <dc:type rdf:resource="http://purl.org/dc/dcmitype/StillImage"/>
    <dc:title/>
   </cc:Work>
  </rdf:RDF>
 </metadata>
 <g transform="translate(-22.907 -51.989)">
  <circle cx="108.78" cy="140.05" r="61.497" fill="#262626" stroke="#e0e0e0"/>
  <g fill="#e0e0e0" stroke="#262626" stroke-width=".26458px">
   <path d="m108.77 52.051s0.84181 4.561 0.84181 8.4501c0 6.5472-6.8456 8.418-6.8456 14.491 0 7.009 9.7146 12.469 9.7146 18.457 0 3.7924-3.7109 10.775-3.7109 10.775s5.2875-8.2864 5.2875-12.949c0-5.3654-4.5119-9.8697-4.5119-15.368 0-4.1105 3.3526-7.7918 3.2329-11.901-0.13636-4.6786-4.0086-11.956-4.0086-11.956zm68.359 32.624s-3.0144 3.5242-6.0368 5.9717c-5.0881 4.1203-10.85-0.02233-15.57 3.7992-5.447 4.4109-3.5766 15.397-8.2305 19.165-2.9472 2.3866-10.708 3.8969-10.708 3.8969s9.7672-1.1056 13.39-4.0396c4.1697-3.3766 4.8307-9.7176 9.1033-13.177 3.1945-2.5868 8.1652-2.2982 11.283-4.977 3.5502-3.0503 6.7686-10.639 6.7686-10.639zm-137.67 1.1927s4.1122 2.1449 7.1768 4.5393c5.1593 4.0309 2.419 10.577 7.2042 14.315 5.5232 4.3152 15.807 0.0214 20.526 3.7083 2.9884 2.3348 6.2058 9.5576 6.2058 9.5576s-3.2746-9.268-6.9484-12.138c-4.228-3.3033-10.555-2.5213-14.887-5.9061-3.2391-2.5307-4.0762-7.4391-7.3877-9.8743-3.7708-2.773-11.889-4.2018-11.889-4.2018zm69.314 51.46c-0.19074 1.3e-4 -0.38092 0.0204-0.5674 0.0605-0.76844 0.15023-1.4342 0.6257-1.8257 1.3038-0.17851 0.30933-0.29407 0.65092-0.34003 1.0051-0.0436 0.32339-0.0283 0.652 0.045 0.96997 0.0416 0.17979 0.10155 0.35485 0.1788 0.52245 0.25978 0.62294 0.7428 1.1264 1.3544 1.4118 1.3554 0.63204 2.9665 0.0458 3.5988-1.3095 0.0741-0.15881 0.13258-0.32443 0.17467-0.49454 0.31147-1.0646-0.0577-2.2114-0.93173-2.8944-0.44311-0.34606-0.98294-0.54564-1.5446-0.57103-0.0473-3e-3 -0.0947-4e-3 -0.14212-4e-3zm-46.853 8.3421c-0.68805 0.0105-1.3292 0.0741-1.897 0.20515-5.2279 1.207-8.6019 6.616-13.959 7.8528-4.0052 0.92467-8.3462-1.5138-12.323-0.47284-4.5281 1.1853-10.748 6.5955-10.748 6.5955s4.2545-1.8464 8.044-2.7213c6.3794-1.4728 9.7421 4.7767 15.659 3.4106 6.8294-1.5767 9.9641-12.271 15.799-13.618 3.6952-0.8531 11.333 1.1922 11.333 1.1922s-7.0925-2.5175-11.909-2.4443zm62.542 26.65s-1.1198 9.7659 0.92397 13.956c2.352 4.8224 8.382 6.893 10.792 11.834 1.8019 3.6945 0.40217 8.4725 2.311 12.113 2.1735 4.1454 8.8439 8.9886 8.8439 8.9886s-2.7558-3.7304-4.4607-7.2259c-2.8701-5.8846 2.4626-10.567-0.19947-16.025-3.0726-6.2996-14.198-6.9481-16.823-12.331-1.6625-3.4086-1.388-11.311-1.388-11.311zm-30.835 0.28422s-8.2942 5.2753-10.264 9.5007c-2.2675 4.8627-0.08204 10.852-2.4055 15.835-1.7372 3.7254-6.3313 5.6446-7.9592 9.4191-1.8537 4.2979-1.4196 12.53-1.4196 12.53s1.1645-4.4892 2.8081-8.014c2.767-5.9338 9.7616-4.7366 12.328-10.24 2.9621-6.3523-3.5349-15.406-1.0041-20.833 1.6027-3.4371 7.9168-8.1969 7.9168-8.1969z"/>
   <path d="m106.12 139.47a2.7081 2.7081 0 0 1 3.2123-2.0861 2.7081 2.7081 0 0 1 2.0856 3.2122 2.7081 2.7081 0 0 1-3.2117 2.0857 2.7081 2.7081 0 0 1-2.0862-3.2118zm37.679 8.0089s6.058 5.0815 9.7675 5.87c5.8576 1.2451 13.218-7.1221 20.074-5.6649 5.9398 1.2626 6.3465 8.3475 12.751 9.7087 3.8041 0.80859 8.4405 0.93347 8.4405 0.93347s-7.9233 2.2746-12.528 1.4352c-4.0439-0.73714-6.9476-4.7819-10.968-5.6365-5.3777-1.1431-10.722 2.3337-15.97 1.2182-4.5603-0.96932-11.566-7.8642-11.566-7.8642z"/>
  </g>
  <g>
   <ellipse cx="108.78" cy="140.05" rx="40.48" ry="40.467" fill="#262626" stroke="#e0e0e0" stroke-width="2.6017"/>
   <path d="m83.687 114.96 19.942 25.092-19.943 25.091 25.092-19.942 25.091 19.943-19.942-25.092 19.943-25.091-25.092 19.942z" fill="#e0e0e0" stroke="#262626"/>
   <path d="m108.78 104.24-3.7016 28.884-35.029 6.9283 35.029 6.9283 3.7016 28.884 3.7016-28.884 35.029-6.9283-35.029-6.9283z" fill="#e0e0e0" stroke="#262626" stroke-linecap="round" stroke-width="1.5" style="paint-order:stroke fill markers"/>
  </g>
 </g>
</svg>
