<?xml version="1.0" encoding="UTF-8" standalone="no"?>
<svg
   xmlns:dc="http://purl.org/dc/elements/1.1/"
   xmlns:cc="http://creativecommons.org/ns#"
   xmlns:rdf="http://www.w3.org/1999/02/22-rdf-syntax-ns#"
   xmlns:svg="http://www.w3.org/2000/svg"
   xmlns="http://www.w3.org/2000/svg"
   xmlns:sodipodi="http://sodipodi.sourceforge.net/DTD/sodipodi-0.dtd"
   xmlns:inkscape="http://www.inkscape.org/namespaces/inkscape"
   width="71.083939mm"
   height="137.02611mm"
   viewBox="0 0 71.083939 137.02611"
   version="1.1"
   id="svg8"
   inkscape:version="1.0.2 (394de47547, 2021-03-26)"
   sodipodi:docname="ungorian.svg">
  <defs
     id="defs2" />
  <sodipodi:namedview
     id="base"
     pagecolor="#262626"
     bordercolor="#666666"
     borderopacity="1.0"
     inkscape:pageopacity="0"
     inkscape:pageshadow="2"
     inkscape:zoom="0.49497475"
     inkscape:cx="-113.57778"
     inkscape:cy="325.63526"
     inkscape:document-units="mm"
     inkscape:current-layer="layer1"
     inkscape:document-rotation="0"
     showgrid="false"
     showguides="true"
     inkscape:guide-bbox="true"
     fit-margin-top="0"
     fit-margin-left="0"
     fit-margin-right="0"
     fit-margin-bottom="0"
     inkscape:window-width="1515"
     inkscape:window-height="679"
     inkscape:window-x="274"
     inkscape:window-y="144"
     inkscape:window-maximized="0">
    <sodipodi:guide
       position="35.542344,76.502401"
       orientation="1,0"
       id="guide2153" />
    <sodipodi:guide
       position="30.393304,71.353358"
       orientation="0,-1"
       id="guide2175" />
    <sodipodi:guide
       position="35.54234,87.582662"
       orientation="0,-1"
       id="guide2201" />
  </sodipodi:namedview>
  <metadata
     id="metadata5">
    <rdf:RDF>
      <cc:Work
         rdf:about="">
        <dc:format>image/svg+xml</dc:format>
        <dc:type
           rdf:resource="http://purl.org/dc/dcmitype/StillImage" />
        <dc:title></dc:title>
      </cc:Work>
    </rdf:RDF>
  </metadata>
  <g
     inkscape:label="Layer 1"
     inkscape:groupmode="layer"
     id="layer1"
     transform="translate(-78.329624,-58.805722)">
    <g
       id="g2322">
      <path
         id="path983"
         style="fill:#e0e0e0;fill-opacity:1;stroke:#262626;stroke-width:3.77953;stroke-linecap:butt;stroke-linejoin:miter;stroke-miterlimit:4;stroke-dasharray:none;stroke-opacity:1"
         d="m 343.80469,25.875 -12.83008,218.44336 -82.00391,-65.17774 65.82227,82.82032 -105.10742,12.01562 105.10547,12.01758 -65.82227,82.81641 81.93164,-65.11719 12.9043,239.86328 12.90234,-239.86523 81.93164,65.12109 -65.82226,-82.81836 105.10351,-12.01562 -105.10351,-12.01758 65.82421,-82.81836 -82.00976,65.17969 z"
         transform="matrix(0.26458333,0,0,0.26458333,22.907122,51.988945)" />
      <path
         id="path2199"
         style="fill:#808000;fill-opacity:0;stroke:#e0e0e0;stroke-width:1;stroke-linecap:butt;stroke-linejoin:miter;stroke-miterlimit:4;stroke-dasharray:none;stroke-opacity:1"
         d="m 113.87248,100.91454 -5.1e-4,5.2e-4 v 5.1e-4 c -5.13769,8.33699 -5.13849,11.15743 -14.690065,8.87285 l -5.16e-4,-5.2e-4 c 2.284681,9.55198 -0.53558,9.55227 -8.87336,14.69058 8.337632,5.13823 11.157821,5.13859 8.87336,14.69006 h 5.16e-4 c 9.551465,-2.28446 9.551835,0.53572 14.690065,8.87336 l -5.2e-4,-2.8205 5.2e-4,-20.74292 v 20.74292 2.8205 c 5.13822,-8.33764 5.13859,-11.15782 14.69005,-8.87336 h 5.2e-4 c -2.28446,-9.55147 0.53573,-9.55183 8.87336,-14.69006 -8.33764,-5.13822 -11.15782,-5.13859 -8.87336,-14.69006 -9.55157,2.28458 -9.55237,-0.53586 -14.69006,-8.87285 z" />
    </g>
  </g>
</svg>
